<?xml version="1.0" encoding="utf-8"?>
<!-- Generator: Adobe Illustrator 25.0.1, SVG Export Plug-In . SVG Version: 6.00 Build 0)  -->
<svg version="1.1" id="Layer_1" xmlns="http://www.w3.org/2000/svg" xmlns:xlink="http://www.w3.org/1999/xlink" x="0px" y="0px"
	 viewBox="0 0 120 100" style="enable-background:new 0 0 120 100;" xml:space="preserve">
<style type="text/css">
	.st0{display:none;}
	.st1{display:inline;fill:#627EEA;}
	.st2{display:inline;fill:#FFFFFF;fill-opacity:0.602;}
	.st3{display:inline;fill:#FFFFFF;}
	.st4{display:inline;fill:#FFFFFF;fill-opacity:0.2;}
	.st5{display:inline;}
	.st6{clip-path:url(#SVGID_2_);}
	.st7{fill:#F3BA2F;}
	.st8{fill:#FFFFFF;}
	.st9{clip-path:url(#SVGID_4_);}
	.st10{fill:#1969FF;}
	.st11{clip-path:url(#SVGID_6_);}
	.st12{clip-path:url(#SVGID_8_);}
	.st13{fill:#8F5AE8;}
	.st14{clip-path:url(#SVGID_10_);}
	.st15{fill:#E84142;}
	.st16{display:inline;fill:#00D4D5;}
	.st17{opacity:0.9;fill:#FFFFFF;enable-background:new    ;}
	.st18{opacity:0.8;fill:#FFFFFF;enable-background:new    ;}
	.st19{opacity:0.4;fill:#FFFFFF;enable-background:new    ;}
	.st20{opacity:0.2;fill:#FFFFFF;enable-background:new    ;}
	.st21{opacity:0.3;fill:#FFFFFF;enable-background:new    ;}
	.st22{opacity:0.7;fill:#FFFFFF;enable-background:new    ;}
	.st23{opacity:0.6;fill:#FFFFFF;enable-background:new    ;}
	.st24{opacity:0.95;fill:#FFFFFF;enable-background:new    ;}
	.st25{opacity:0.55;fill:#FFFFFF;enable-background:new    ;}
	.st26{clip-path:url(#SVGID_12_);}
	.st27{fill:#000C74;}
	.st28{display:inline;fill:#53CBC8;}
	.st29{display:inline;fill:#F2B705;}
	.st30{display:inline;fill:#01943F;}
	.st31{clip-path:url(#SVGID_14_);}
	.st32{fill:#260073;}
	.st33{fill:#7053A2;}
	.st34{fill:#7157A4;}
	.st35{fill:#BAA6D0;}
	.st36{fill:#5A3C97;}
	.st37{display:inline;fill:url(#SVGID_15_);}
	.st38{clip-path:url(#SVGID_17_);}
	.st39{fill:#072C4C;}
</style>
<g class="st0">
	<path class="st1" d="M60,90.3c22.3,0,40.3-18.1,40.3-40.3S82.3,9.7,60,9.7S19.7,27.7,19.7,50S37.7,90.3,60,90.3z"/>
	<path class="st2" d="M61.3,19.7v22.4l18.9,8.4L61.3,19.7z"/>
	<path class="st3" d="M61.3,19.7l-19,30.9l18.9-8.4V19.7H61.3z"/>
	<path class="st2" d="M61.3,65v15.2L80.2,54L61.3,65z"/>
	<path class="st3" d="M61.3,80.2V65L42.4,54L61.3,80.2z"/>
	<path class="st4" d="M61.3,61.5l18.9-11l-18.9-8.4C61.3,42.1,61.3,61.5,61.3,61.5z"/>
	<path class="st2" d="M42.3,50.6l18.9,11V42.1L42.3,50.6z"/>
</g>
<g class="st0">
	<g class="st5">
		<defs>
			<rect id="SVGID_1_" x="19.7" y="9.7" width="80.6" height="80.6"/>
		</defs>
		<clipPath id="SVGID_2_">
			<use xlink:href="#SVGID_1_"  style="overflow:visible;"/>
		</clipPath>
		<g class="st6">
			<path class="st7" d="M60,90.3c22.3,0,40.3-18,40.3-40.3S82.3,9.7,60,9.7c-22.3,0-40.3,18-40.3,40.3S37.7,90.3,60,90.3z"/>
			<path class="st8" d="M50.2,46l9.8-9.8l9.8,9.8l5.7-5.7L60,24.8L44.5,40.3L50.2,46z M34.8,50l5.7-5.7l5.7,5.7l-5.7,5.7L34.8,50z
				 M50.2,54l9.8,9.8l9.8-9.8l5.7,5.7L60,75.2L44.5,59.7l0,0L50.2,54z M73.8,50l5.7-5.7l5.7,5.7l-5.7,5.7L73.8,50z M65.8,50L65.8,50
				L65.8,50L60,55.8L54.2,50l0,0l0,0l1-1l0.5-0.5l4.3-4.3L65.8,50L65.8,50z"/>
		</g>
	</g>
</g>
<g class="st0">
	<g class="st5">
		<defs>
			<rect id="SVGID_3_" x="19.7" y="10.3" width="80.6" height="79.3"/>
		</defs>
		<clipPath id="SVGID_4_">
			<use xlink:href="#SVGID_3_"  style="overflow:visible;"/>
		</clipPath>
		<g class="st9">
			<path class="st10" d="M60,89.7c22.3,0,40.3-17.8,40.3-39.7c0-21.9-18-39.7-40.3-39.7S19.7,28.1,19.7,50
				C19.7,71.9,37.7,89.7,60,89.7z"/>
		</g>
	</g>
	<g class="st5">
		<defs>
			<rect id="SVGID_5_" x="42.5" y="26.5" width="36.3" height="47"/>
		</defs>
		<clipPath id="SVGID_6_">
			<use xlink:href="#SVGID_5_"  style="overflow:visible;"/>
		</clipPath>
		<g class="st11">
			<path class="st8" d="M74.4,33.4L62.8,27c-0.7-0.4-1.4-0.6-2.2-0.6s-1.5,0.2-2.2,0.6l-11.7,6.4c-0.2,0.1-0.3,0.2-0.4,0.4
				c-0.1,0.2-0.2,0.4-0.2,0.6v30.9c0,0.2,0.1,0.4,0.2,0.6c0.1,0.2,0.3,0.3,0.4,0.4L58.9,73c0.5,0.3,1.1,0.4,1.7,0.4
				c0.6,0,1.2-0.1,1.7-0.4l12.2-6.7c0.2-0.1,0.3-0.2,0.4-0.4c0.1-0.2,0.2-0.4,0.2-0.6V50.2c0,0,0,0,0,0V34.5c0-0.2-0.1-0.4-0.2-0.6
				C74.8,33.7,74.6,33.5,74.4,33.4z M72.7,47.4l-8.9-4.9l8.9-4.9V47.4z M57.4,42.5l-8.9,4.9v-9.8L57.4,42.5z M59.4,44v11.5L49,49.8
				L59.4,44z M61.8,44l10.4,5.8l-10.4,5.7V44z M59.6,29.1c0.3-0.2,0.7-0.3,1-0.3c0.4,0,0.7,0.1,1,0.3l10.9,6l-11.3,6.2
				c-0.4-0.1-0.8-0.1-1.2,0L48.7,35L59.6,29.1z M72.7,64.6L61.2,71c-0.2,0.1-0.4,0.1-0.6,0.1c-0.2,0-0.4-0.1-0.6-0.1l-11.6-6.3V52.1
				l10.4,5.7c0.5,0.3,1.1,0.4,1.7,0.4c0.6,0,1.2-0.2,1.7-0.4l10.4-5.7V64.6z"/>
			<path class="st8" d="M77.4,31c-0.7-0.7-1.5-1.3-2.4-1.7L74.2,31c0.7,0.4,1.4,0.9,1.9,1.4c0.8,0.8,0.8,2,0.8,3.2h1.9
				C78.8,34.2,78.8,32.3,77.4,31z"/>
			<path class="st8" d="M44.4,64.4h-1.9c0,1.4,0,3.3,1.4,4.6c0.7,0.7,1.5,1.3,2.4,1.7l0.8-1.7c-0.7-0.4-1.4-0.8-1.9-1.4
				C44.4,66.9,44.4,65.6,44.4,64.4z"/>
		</g>
	</g>
</g>
<g class="st0">
	<g class="st5">
		<defs>
			<rect id="SVGID_7_" x="19.7" y="11" width="80.6" height="78.1"/>
		</defs>
		<clipPath id="SVGID_8_">
			<use xlink:href="#SVGID_7_"  style="overflow:visible;"/>
		</clipPath>
		<g class="st12">
			<path class="st13" d="M60,11c8,0,15.8,2.3,22.4,6.6s11.8,10.4,14.8,17.5c3.1,7.1,3.8,15,2.3,22.6c-1.6,7.6-5.4,14.5-11,20
				c-5.6,5.5-12.8,9.2-20.6,10.7C60,89.8,51.9,89,44.6,86.1c-7.4-3-13.7-8-18.1-14.4s-6.8-14-6.8-21.7c0-10.4,4.2-20.3,11.8-27.6
				C39.1,15.1,49.3,11,60,11L60,11z"/>
			<path class="st8" d="M73.8,41c-0.5-0.3-1.1-0.4-1.7-0.4c-0.6,0-1.2,0.1-1.7,0.4l-7.7,4.4l-5.4,2.9l-7.7,4.4
				c-0.5,0.3-1.1,0.4-1.7,0.4c-0.6,0-1.2-0.1-1.7-0.4l-6.1-3.4c-0.5-0.3-0.9-0.7-1.2-1.2c-0.3-0.5-0.5-1-0.5-1.6v-6.9
				c0-0.6,0.1-1.1,0.4-1.6c0.3-0.5,0.7-0.9,1.3-1.1l6.1-3.3c0.5-0.3,1.1-0.4,1.7-0.4c0.6,0,1.2,0.1,1.7,0.4l6.1,3.3
				c0.5,0.3,0.9,0.7,1.2,1.2c0.3,0.5,0.5,1,0.5,1.6V44l5.2-3v-4.3c0-0.6-0.1-1.1-0.4-1.6C62,34.6,61.5,34.2,61,34l-11.2-6.3
				c-0.5-0.3-1.1-0.4-1.7-0.4c-0.6,0-1.2,0.1-1.7,0.4L35,34c-0.6,0.2-1.1,0.6-1.4,1.1c-0.3,0.5-0.5,1.1-0.5,1.7v12.8
				c0,0.6,0.1,1.1,0.4,1.6c0.3,0.5,0.7,0.9,1.3,1.1l11.4,6.3c0.5,0.3,1.1,0.4,1.7,0.4c0.6,0,1.2-0.1,1.7-0.4l7.7-4.3l5.3-3l7.7-4.3
				c0.5-0.3,1.1-0.4,1.7-0.4s1.2,0.1,1.7,0.4l6.1,3.3c0.5,0.3,0.9,0.7,1.2,1.2c0.3,0.5,0.5,1,0.5,1.6v6.7c0,0.6-0.1,1.1-0.4,1.6
				c-0.3,0.5-0.7,0.9-1.3,1.1l-6.1,3.4c-0.5,0.3-1.1,0.4-1.7,0.4s-1.2-0.1-1.7-0.4l-6.1-3.3c-0.5-0.3-0.9-0.7-1.2-1.2
				c-0.3-0.5-0.5-1-0.5-1.6v-4.4l-5.1,2.9v4.4c0,0.6,0.1,1.1,0.4,1.6c0.3,0.5,0.7,0.9,1.3,1.1L70.4,72c0.5,0.3,1.1,0.4,1.7,0.4
				c0.6,0,1.2-0.1,1.7-0.4l11.4-6.3c0.5-0.3,0.9-0.7,1.2-1.2c0.3-0.5,0.5-1,0.5-1.6V50.1c0-0.6-0.1-1.1-0.4-1.6
				c-0.3-0.5-0.7-0.9-1.3-1.1L73.8,41z"/>
		</g>
	</g>
</g>
<g class="st0">
	<g class="st5">
		<defs>
			<rect id="SVGID_9_" x="19.7" y="10.3" width="80.6" height="79.3"/>
		</defs>
		<clipPath id="SVGID_10_">
			<use xlink:href="#SVGID_9_"  style="overflow:visible;"/>
		</clipPath>
		<g class="st14">
			<path class="st15" d="M60,89.7c22.3,0,40.3-17.8,40.3-39.7c0-21.9-18-39.7-40.3-39.7S19.7,28.1,19.7,50
				C19.7,71.9,37.7,89.7,60,89.7z"/>
			<path class="st8" d="M74.2,51c1.4-2.4,3.6-2.4,5,0l8.7,15c1.4,2.4,0.3,4.3-2.5,4.3H67.9c-2.8,0-3.9-1.9-2.5-4.3L74.2,51z
				 M57.4,22.1c1.4-2.4,3.6-2.4,5,0l1.9,3.4l4.6,7.9c1.1,2.2,1.1,4.9,0,7.2L53.6,66.7c-1.4,2.1-3.7,3.5-6.3,3.6H34.6
				c-2.8,0-3.9-1.9-2.5-4.3L57.4,22.1z"/>
		</g>
	</g>
</g>
<g class="st0">
	<circle class="st16" cx="60" cy="50" r="40.3"/>
	<g class="st5">
		<path class="st8" d="M61.3,22.3V36l11.9-6.9L61.3,22.3z"/>
		<path class="st17" d="M73.2,29.2v13.7L85.2,36L73.2,29.2z"/>
		<path class="st18" d="M61.3,36v13.7l11.9-6.9L61.3,36z M73.2,42.9v13.7l11.9-6.9L73.2,42.9z"/>
		<path class="st18" d="M61.3,49.8v13.7l11.9-6.9L61.3,49.8z"/>
		<path class="st8" d="M73.2,56.7v13.7l11.9-6.9L73.2,56.7z"/>
		<path class="st19" d="M30.5,35.6v13.7l11.9-6.9L30.5,35.6z"/>
		<path class="st20" d="M45.5,40.7v13.7l11.9-6.9L45.5,40.7z"/>
		<path class="st21" d="M36.7,49.4v13.7l11.9-6.9L36.7,49.4z"/>
		<path class="st17" d="M44.5,59.8v13.7l11.9-6.9L44.5,59.8z"/>
		<path class="st22" d="M61.2,65.7v13.7l11.9-6.9L61.2,65.7z"/>
		<path class="st17" d="M47.5,33.9v13.7l11.9-6.9L47.5,33.9z"/>
		<path class="st18" d="M61.3,22.3V36l-11.9-6.9L61.3,22.3z"/>
		<path class="st23" d="M47.5,28.1v13.7L35.6,35L47.5,28.1z"/>
		<path class="st23" d="M59.4,34.9v13.7l-11.9-6.9L59.4,34.9z"/>
		<path class="st24" d="M45.5,40.7v13.7l-11.9-6.9L45.5,40.7z"/>
		<path class="st23" d="M61.3,49.8v13.7l-11.9-6.9L61.3,49.8z"/>
		<path class="st25" d="M36.7,53v13.7l-11.9-6.9L36.7,53z"/>
		<path class="st8" d="M85.2,36v13.7l-11.9-6.9L85.2,36z"/>
		<path class="st24" d="M73.2,42.9v13.7l-11.9-6.9L73.2,42.9z"/>
		<path class="st17" d="M85.2,49.8v13.7l-11.9-6.9L85.2,49.8z"/>
		<path class="st22" d="M73.2,56.7v13.7l-11.9-6.9L73.2,56.7z"/>
		<path class="st19" d="M58.7,62.4v13.7l-11.9-6.9L58.7,62.4z"/>
		<path class="st8" d="M73.2,29.2v13.7L61.3,36L73.2,29.2z"/>
	</g>
</g>
<g class="st0">
	<g class="st5">
		<defs>
			<rect id="SVGID_11_" x="19.7" y="10.3" width="80.6" height="79.3"/>
		</defs>
		<clipPath id="SVGID_12_">
			<use xlink:href="#SVGID_11_"  style="overflow:visible;"/>
		</clipPath>
		<g class="st26">
			<path class="st27" d="M60,89.7c22.3,0,40.3-17.8,40.3-39.7c0-21.9-18-39.7-40.3-39.7S19.7,28.1,19.7,50
				C19.7,71.9,37.7,89.7,60,89.7z"/>
		</g>
	</g>
	<path class="st28" d="M71.6,55.9c-4.9,0-7.8-2.1-9.5-3.4c-0.1-0.1-0.3-0.2-0.4-0.3c-0.2-0.2-0.5-0.4-0.7-0.6c-1.5-1.2-3.8-3-9-3
		c-5.9,0-10.3,3.8-10.3,3.9c-0.1,0.1-0.3,0.2-0.4,0.3c-0.2,0.1-0.3,0.1-0.5,0.1c-0.2,0-0.3,0-0.5-0.1c-0.1-0.1-0.3-0.2-0.4-0.3
		c-0.1-0.1-0.2-0.3-0.2-0.4c-0.1-0.2-0.1-0.3-0.1-0.5c0-0.2,0.1-0.3,0.1-0.5c0.1-0.1,0.2-0.3,0.3-0.4c0.2-0.2,5.1-4.5,12-4.5
		c6,0,8.8,2.2,10.5,3.6c0.2,0.2,0.4,0.4,0.6,0.5c0.1,0.1,0.3,0.2,0.4,0.3c1.6,1.1,3.9,2.9,8,2.9c4.2,0,6.6-1.7,8-2.8l0.3-0.2
		c0.3-0.2,0.6-0.3,0.9-0.2c0.3,0.1,0.6,0.2,0.8,0.5c0.2,0.3,0.3,0.6,0.2,0.9c0,0.3-0.2,0.6-0.5,0.8L81,52.6
		C79.5,53.7,76.6,55.9,71.6,55.9z"/>
	<path class="st29" d="M51.5,43.5c6.2,0,9.8,3.5,11.4,4.6c1.5,1.1,3.7,2.7,8.6,2.7c4.3,0,6.9-1.5,8.5-2.7c0.1,0,0.1-0.1,0.1-0.2
		c0.2-1.3,0.4-2.5,0.4-3.8c0-11-8.9-20.1-19.9-20.2c-2.9,0-5.9,0.6-8.5,1.8c-2.7,1.2-5.1,3-7,5.2c-1.9,2.2-3.3,4.9-4.1,7.7
		c-0.8,2.8-1,5.8-0.5,8.7c0,0.1,0,0.1,0.1,0.1c0,0,0.1,0.1,0.1,0.1c0.1,0,0.1,0,0.2,0c0.1,0,0.1,0,0.1-0.1
		C42.8,46,46.8,43.5,51.5,43.5z"/>
	<path class="st28" d="M77.5,64c-0.2,0-0.3,0-0.5-0.1c-0.1-0.1-0.3-0.2-0.4-0.3c-0.1-0.1-0.2-0.3-0.3-0.4c-0.1-0.1-0.1-0.3-0.1-0.5
		v-4.4c0-0.3,0.1-0.6,0.4-0.9c0.2-0.2,0.5-0.4,0.9-0.4c0.3,0,0.6,0.1,0.9,0.4c0.2,0.2,0.4,0.5,0.4,0.9v4.4c0,0.2,0,0.3-0.1,0.5
		s-0.2,0.3-0.3,0.4c-0.1,0.1-0.3,0.2-0.4,0.3C77.9,63.9,77.7,64,77.5,64z"/>
	<path class="st28" d="M72.6,71c-0.3,0-0.6-0.1-0.9-0.4c-0.2-0.2-0.4-0.5-0.4-0.9V59.3c0-0.3,0.1-0.6,0.4-0.8
		c0.2-0.2,0.5-0.3,0.9-0.3c0.3,0,0.6,0.1,0.9,0.3c0.2,0.2,0.4,0.5,0.4,0.8v10.5c0,0.2,0,0.3-0.1,0.5c-0.1,0.1-0.2,0.3-0.3,0.4
		c-0.1,0.1-0.3,0.2-0.4,0.3C72.9,71,72.8,71,72.6,71z"/>
	<path class="st28" d="M67.7,72.3c-0.2,0-0.3,0-0.5-0.1c-0.1-0.1-0.3-0.2-0.4-0.3c-0.1-0.1-0.2-0.3-0.3-0.4
		c-0.1-0.1-0.1-0.3-0.1-0.5V59c0-0.3,0.1-0.6,0.4-0.9c0.2-0.2,0.5-0.4,0.9-0.4c0.3,0,0.6,0.1,0.9,0.4c0.2,0.2,0.4,0.5,0.4,0.9v12
		c0,0.2,0,0.3-0.1,0.5c-0.1,0.1-0.2,0.3-0.3,0.4c-0.1,0.1-0.3,0.2-0.4,0.3C68,72.2,67.8,72.3,67.7,72.3z"/>
	<path class="st28" d="M62.7,60.7c-0.3,0-0.6-0.1-0.9-0.4c-0.2-0.2-0.4-0.5-0.4-0.9V57c0-0.3,0.1-0.6,0.4-0.8
		c0.2-0.2,0.5-0.3,0.9-0.3c0.3,0,0.6,0.1,0.9,0.3c0.2,0.2,0.4,0.5,0.4,0.8v2.5c0,0.2,0,0.3-0.1,0.5c-0.1,0.1-0.2,0.3-0.3,0.4
		c-0.1,0.1-0.3,0.2-0.4,0.3C63.1,60.7,62.9,60.7,62.7,60.7z"/>
	<path class="st28" d="M57.8,64c-0.3,0-0.6-0.1-0.9-0.4c-0.2-0.2-0.4-0.5-0.4-0.9v-8.6c0-0.3,0.1-0.6,0.4-0.9s0.5-0.4,0.9-0.4
		c0.3,0,0.6,0.1,0.9,0.4c0.2,0.2,0.4,0.5,0.4,0.9v8.6c0,0.3-0.1,0.6-0.4,0.9C58.5,63.8,58.1,64,57.8,64z"/>
	<path class="st28" d="M52.9,77.1c-0.2,0-0.3,0-0.5-0.1c-0.2-0.1-0.3-0.2-0.4-0.3c-0.1-0.1-0.2-0.3-0.3-0.4
		c-0.1-0.2-0.1-0.3-0.1-0.5V52.3c0-0.3,0.1-0.6,0.4-0.8c0.2-0.2,0.5-0.3,0.9-0.3c0.3,0,0.6,0.1,0.9,0.3c0.2,0.2,0.4,0.5,0.4,0.8
		v23.6c0,0.3-0.1,0.6-0.4,0.9C53.5,76.9,53.2,77.1,52.9,77.1z"/>
	<path class="st28" d="M48,65.6c-0.3,0-0.6-0.1-0.9-0.4c-0.2-0.2-0.4-0.5-0.4-0.9V52.5c0-0.3,0.1-0.6,0.4-0.9s0.5-0.4,0.9-0.4
		c0.3,0,0.6,0.1,0.9,0.4c0.2,0.2,0.4,0.5,0.4,0.9v11.8c0,0.2,0,0.3-0.1,0.5c-0.1,0.1-0.2,0.3-0.3,0.4c-0.1,0.1-0.3,0.2-0.4,0.3
		C48.3,65.6,48.1,65.6,48,65.6z"/>
	<path class="st28" d="M43,65.6c-0.3,0-0.6-0.1-0.9-0.4c-0.2-0.2-0.4-0.5-0.4-0.9v-8.9c0-0.3,0.1-0.6,0.4-0.8
		c0.2-0.2,0.5-0.3,0.9-0.3s0.6,0.1,0.9,0.3c0.2,0.2,0.4,0.5,0.4,0.8v8.9c0,0.2,0,0.3-0.1,0.5c-0.1,0.1-0.2,0.3-0.3,0.4
		c-0.1,0.1-0.3,0.2-0.4,0.3C43.3,65.6,43.2,65.6,43,65.6z"/>
</g>
<g class="st0">
	<path class="st30" d="M60,9.7C37.8,9.7,19.7,27.8,19.7,50S37.8,90.3,60,90.3s40.3-18.1,40.3-40.3S82.2,9.7,60,9.7z"/>
	<path class="st3" d="M50,37.4C50.1,37.4,50.1,37.4,50,37.4c0.4-0.2,0.7-0.3,1.1-0.5v-6.4c0-0.6-0.2-1.1-0.6-1.5
		c-0.4-0.4-0.9-0.6-1.5-0.6h-8.7v18.4C42.4,42.7,45.8,39.4,50,37.4z"/>
	<path class="st3" d="M58.9,48.6h1.9c0.7,0,1.3-0.1,2-0.4c0.6-0.3,1.2-0.6,1.7-1.1c0.5-0.5,0.9-1,1.1-1.7c0.3-0.6,0.4-1.3,0.4-2V38
		c-1.1-0.2-5.9-0.3-7-0.3c-4.8,0-9.3,1.8-12.8,5c-3.5,3.2-5.6,7.7-5.9,12.4c0,0.4,0,0.9,0,1.3c0,0.4,0,0.9,0,1.3v11.7
		c0,0.3,0.1,0.6,0.2,0.8c0.1,0.3,0.3,0.5,0.5,0.7c0.2,0.2,0.4,0.4,0.7,0.5c0.3,0.1,0.5,0.2,0.8,0.2h8.7V56.4c0-2.1,0.8-4.1,2.3-5.5
		C54.9,49.4,56.9,48.6,58.9,48.6L58.9,48.6z"/>
	<path class="st3" d="M70,62.6C69.9,62.6,69.9,62.6,70,62.6c-0.4,0.2-0.7,0.3-1.1,0.5v6.4c0,0.6,0.2,1.1,0.6,1.5
		c0.4,0.4,0.9,0.6,1.5,0.6h8.7V53.2C77.6,57.3,74.2,60.6,70,62.6z"/>
	<path class="st3" d="M79.7,42.2V30.5c0-0.3-0.1-0.6-0.2-0.8c-0.1-0.3-0.3-0.5-0.5-0.7c-0.2-0.2-0.4-0.4-0.7-0.5
		c-0.3-0.1-0.5-0.2-0.8-0.2h-8.7v15.2c0,2.1-0.8,4.1-2.3,5.5c-1.5,1.5-3.5,2.3-5.5,2.3h-2c-0.7,0-1.3,0.1-2,0.4
		c-0.6,0.3-1.2,0.6-1.7,1.1c-0.5,0.5-0.9,1-1.1,1.7c-0.3,0.6-0.4,1.3-0.4,2V62c1.1,0.2,5.9,0.3,7,0.3c0.1,0,0.2,0,0.4,0
		c2.6,0,5.2-0.6,7.6-1.7l0,0c3-1.4,5.6-3.6,7.5-6.4c1.9-2.8,3-6,3.2-9.3c0-0.4,0-0.9,0-1.3C79.8,43.1,79.8,42.6,79.7,42.2z"/>
</g>
<g>
	<defs>
		<rect id="SVGID_13_" x="19.7" y="10.3" width="80.6" height="79.3"/>
	</defs>
	<clipPath id="SVGID_14_">
		<use xlink:href="#SVGID_13_"  style="overflow:visible;"/>
	</clipPath>
	<g class="st31">
		<path class="st32" d="M60,89.7c22.3,0,40.3-17.8,40.3-39.7c0-21.9-18-39.7-40.3-39.7S19.7,28.1,19.7,50
			C19.7,71.9,37.7,89.7,60,89.7z"/>
		<path class="st33" d="M79.9,32.6l1.6-3.1c-6.7,0.9-13.2,3-19.2,6.1c-12.4,6.6-12.5,12.8-12.5,12.8c-0.3,1.4,0.5,3.6,1.4,4.8
			c-0.4-1.3-1-4.6,1.6-7.7C56,41.8,62.7,35.3,79.9,32.6z"/>
		<path class="st34" d="M80.1,28.3l-2.5-1.9c-2.7,0.4-9.7,1.8-17,5.6C49.9,37.5,48.1,43.8,48,45.8c0,2,0.6,4.1,0.6,4.1
			s-0.4-3.5,2.6-7.4C54.3,38.5,59.7,32.5,80.1,28.3z"/>
		<path class="st35" d="M46.9,45.2c-0.4-7.3,11.2-17,29.3-19.8l-2.5-1.8c-2.7,0.4-16.2,2.9-24,10.8c-8.8,8.8-4.6,17.3,4,23
			C53.8,57.4,47.4,52.3,46.9,45.2z"/>
		<path class="st36" d="M79.4,34.1c-3.1,0.3-9.1,1.4-15.4,4.7c-10.9,5.8-12,9.7-12.3,12.3c-0.3,2.5,1.4,4.8,1.4,4.8s-0.7-2.3,0.2-5
			c2-5.5,15.4-13,24.3-14L79.4,34.1z"/>
		<path class="st33" d="M40.1,69.3l-1.6,3.1c6.7-0.9,13.2-3,19.2-6.1c12.4-6.6,12.5-12.8,12.5-12.8c0.3-1.4-0.5-3.6-1.4-4.8
			c0.4,1.3,1,4.6-1.6,7.7C64,60.1,57.3,66.6,40.1,69.3z"/>
		<path class="st33" d="M39.9,73.7l2.5,1.9c2.7-0.4,9.7-1.8,17-5.6C70.1,64.4,71.9,58.1,72,56.1c0-2-0.6-4.1-0.6-4.1
			s0.4,3.5-2.6,7.4C65.7,63.4,60.3,69.5,39.9,73.7z"/>
		<path class="st35" d="M73.1,56.7c0.4,7.3-11.2,17-29.3,19.8l2.5,1.8c2.7-0.4,16.2-2.9,24-10.8c8.8-8.8,4.6-17.3-4-23
			C66.2,44.6,72.6,49.6,73.1,56.7z"/>
		<path class="st36" d="M40.6,67.8c3.1-0.3,9.1-1.4,15.4-4.7c10.9-5.8,12-9.7,12.3-12.3c0.3-2.5-1.4-4.8-1.4-4.8s0.7,2.3-0.2,5
			c-2,5.5-15.4,13-24.3,14L40.6,67.8z"/>
	</g>
</g>
<g class="st0">
	<linearGradient id="SVGID_15_" gradientUnits="userSpaceOnUse" x1="31.5036" y1="78.4964" x2="88.4964" y2="21.5036">
		<stop  offset="0" style="stop-color:#00AEE9"/>
		<stop  offset="1" style="stop-color:#69FABD"/>
	</linearGradient>
	<circle class="st37" cx="60" cy="50" r="40.3"/>
	<path id="Shape" class="st3" d="M71.9,29.1c-5,0-9,4-9,9v10c-0.9,0.1-1.9,0.1-2.9,0.1s-1.9,0-2.9,0.1V38.1c-0.1-5-4.2-9-9.2-8.9
		c-4.9,0.1-8.8,4-8.9,8.9V62c0.1,5,4.2,9,9.2,8.9c4.9-0.1,8.8-4,8.9-8.9V52c0.9-0.1,1.9-0.1,2.9-0.1s1.9,0,2.9-0.1V62
		c0.1,5,4.2,9,9.2,8.9c4.9-0.1,8.8-4,8.9-8.9V38.1C80.9,33.1,76.9,29.1,71.9,29.1z M48.1,32.8c2.9,0,5.3,2.4,5.3,5.3v10.6
		c-2.6,0.4-5.2,1.1-7.7,2.2c-1.1,0.5-2.1,1.1-3,1.8V38.1C42.8,35.2,45.2,32.8,48.1,32.8z M53.4,62c0,2.9-2.4,5.3-5.3,5.3
		c-2.9,0-5.3-2.4-5.3-5.3c0,0,0,0,0,0v-2.4c0-2.1,1.7-4.1,4.5-5.4c2-0.9,4.1-1.5,6.2-1.8L53.4,62L53.4,62z M71.9,67.3
		c-2.9,0-5.3-2.4-5.3-5.3V51.4c2.6-0.4,5.2-1.1,7.7-2.2c1.1-0.5,2.1-1.1,3-1.8V62C77.2,64.9,74.8,67.3,71.9,67.3L71.9,67.3z
		 M72.8,45.9c-2,0.9-4.1,1.5-6.2,1.8v-9.6c0-2.9,2.4-5.3,5.3-5.3s5.3,2.4,5.3,5.3c0,0,0,0,0,0v2.4C77.2,42.6,75.6,44.6,72.8,45.9z"
		/>
</g>
<g class="st0">
	<g class="st5">
		<defs>
			<rect id="SVGID_16_" x="19.7" y="10.3" width="80.6" height="79.3"/>
		</defs>
		<clipPath id="SVGID_17_">
			<use xlink:href="#SVGID_16_"  style="overflow:visible;"/>
		</clipPath>
		<g class="st38">
			<path class="st39" d="M60,89.7c22.3,0,40.3-17.8,40.3-39.7c0-21.9-18-39.7-40.3-39.7S19.7,28.1,19.7,50
				C19.7,71.9,37.7,89.7,60,89.7z"/>
		</g>
	</g>
	<path class="st3" d="M59.8,25.3L38,37.9V63l21.7,12.5L81.5,63V37.9L59.8,25.3z M75.1,59.2l-15.3,8.8l-15.3-8.8V41.6l15.3-8.8
		l15.3,8.8V59.2z"/>
	<path class="st3" d="M69.9,56.3l-10.1,5.9l-10.2-5.9V44.6l10.2-5.9l10.1,5.9L65.7,47l-5.9-3.4L53.9,47v6.8l5.9,3.4l5.9-3.4
		L69.9,56.3z"/>
</g>
</svg>
